<svg width="22" height="32" viewBox="0 0 22 32" fill="none" xmlns="http://www.w3.org/2000/svg">
<path opacity="0.4" d="M10.9925 14.4326C10.8458 14.4175 10.6699 14.4175 10.5086 14.4326C7.01894 14.3115 4.24768 11.3584 4.24768 7.72388C4.24768 4.01363 7.15091 1 10.7579 1C14.3502 1 17.2681 4.01363 17.2681 7.72388C17.2535 11.3584 14.4822 14.3115 10.9925 14.4326Z" stroke="white" stroke-width="2" stroke-linecap="round" stroke-linejoin="round"/>
<path d="M3.66129 20.0207C0.112903 22.474 0.112903 26.472 3.66129 28.9101C7.69355 31.6966 14.3065 31.6966 18.3387 28.9101C21.8871 26.4568 21.8871 22.4589 18.3387 20.0207C14.3211 17.2494 7.70821 17.2494 3.66129 20.0207Z" stroke="white" stroke-width="2" stroke-linecap="round" stroke-linejoin="round"/>
</svg>
