<svg width="35" height="35" viewBox="0 0 35 35" fill="none" xmlns="http://www.w3.org/2000/svg">
<path d="M28.8954 14.3352C28.8954 15.7325 27.8022 16.8656 26.4536 16.8656C25.1051 16.8656 24.0117 15.7325 24.0117 14.3352C24.0117 12.9376 25.1051 11.8047 26.4536 11.8047C27.8022 11.8047 28.8954 12.9376 28.8954 14.3352Z" fill="white"/>
<path fill-rule="evenodd" clip-rule="evenodd" d="M28.0635 5.73714C26.2091 5.47877 23.8394 5.47878 20.8476 5.47882H14.1524C11.1606 5.47878 8.791 5.47877 6.93648 5.73714C5.02789 6.00305 3.48308 6.5633 2.26482 7.82574C1.04655 9.08818 0.50589 10.689 0.249288 12.6668C-5.20498e-05 14.5886 -1.72031e-05 17.0441 2.96868e-07 20.1442V20.3347C-1.72031e-05 23.4348 -5.20498e-05 25.8903 0.249288 27.8121C0.50589 29.7899 1.04655 31.3906 2.26482 32.6531C3.48308 33.9156 5.02787 34.4758 6.93648 34.7418C8.79102 35 11.1606 35 14.1524 35H20.8476C23.8394 35 26.2091 35 28.0635 34.7418C29.9721 34.4758 31.517 33.9156 32.7351 32.6531C33.9535 31.3906 34.4941 29.7899 34.7506 27.8121C35 25.8903 35 23.4348 35 20.3347V20.1443C35 17.0441 35 14.5886 34.7506 12.6668C34.4941 10.689 33.9535 9.08818 32.7351 7.82574C31.517 6.5633 29.9721 6.00305 28.0635 5.73714ZM7.26185 8.24497C5.62403 8.47315 4.68041 8.90106 3.99147 9.615C3.30253 10.3289 2.88958 11.3067 2.66938 13.0039C2.49275 14.3653 2.45322 16.0667 2.4444 18.2922L3.26837 17.545C5.23556 15.7613 8.20043 15.8637 10.0488 17.7791L17.0321 25.0154C17.7312 25.74 18.8319 25.8388 19.6409 25.2497L20.1264 24.8963C22.4548 23.2005 25.6049 23.3969 27.7204 25.3698L31.9338 29.2993C32.106 28.7998 32.236 28.2037 32.3306 27.4749C32.5556 25.7414 32.5582 23.4561 32.5582 20.2395C32.5582 17.0227 32.5556 14.7374 32.3306 13.0039C32.1104 11.3067 31.6974 10.3289 31.0086 9.615C30.3196 8.90106 29.376 8.47315 27.7382 8.24497C26.0652 8.01188 23.86 8.0092 20.7559 8.0092H14.2441C11.1401 8.0092 8.93478 8.01188 7.26185 8.24497Z" fill="white"/>
<path d="M26.4011 0.208849C24.8965 -5.58477e-05 22.9807 -3.68299e-05 20.5927 1.00832e-06H15.1857C12.7976 -3.68299e-05 10.8819 -5.58477e-05 9.37719 0.208849C7.81902 0.42517 6.51991 0.886078 5.48953 1.95009C4.89528 2.56373 4.49507 3.26985 4.22247 4.06625C5.10482 3.63111 6.10241 3.37468 7.22243 3.21784C9.12009 2.95208 11.5448 2.9521 14.6061 2.95212H21.4572C24.5185 2.9521 26.9431 2.95208 28.8408 3.21784C29.819 3.35483 30.7038 3.56779 31.5001 3.90941C31.2295 3.17684 30.8438 2.52315 30.2887 1.95009C29.2583 0.886078 27.9593 0.42517 26.4011 0.208849Z" fill="white"/>
</svg>
